<svg width="51.000000" height="51.000000" viewBox="0 0 51 51" fill="none" xmlns="http://www.w3.org/2000/svg" xmlns:xlink="http://www.w3.org/1999/xlink">
	<desc>
			Created with Pixso.
	</desc>
	<defs>
		<clipPath id="clip43_92">
			<rect id="account_circle" width="51.000000" height="51.000000" fill="white" fill-opacity="0"/>
		</clipPath>
	</defs>
	<rect id="account_circle" width="51.000000" height="51.000000" fill="#000000" fill-opacity="0"/>
	<g clip-path="url(#clip43_92)">
		<path id="矢量 15" d="M25.5 4.25C13.77 4.25 4.25 13.77 4.25 25.5C4.25 37.23 13.77 46.75 25.5 46.75C37.23 46.75 46.75 37.23 46.75 25.5C46.75 13.77 37.23 4.25 25.5 4.25ZM25.5 10.62C29.02 10.62 31.87 13.47 31.87 17C31.87 20.52 29.02 23.37 25.5 23.37C21.97 23.37 19.12 20.52 19.12 17C19.12 13.47 21.97 10.62 25.5 10.62ZM25.5 40.8C20.18 40.8 15.49 38.08 12.75 33.95C12.81 29.72 21.25 27.41 25.5 27.41C29.72 27.41 38.18 29.72 38.25 33.95C35.5 38.08 30.81 40.8 25.5 40.8Z" fill="#FFFFFF" fill-opacity="1.000000" fill-rule="evenodd"/>
	</g>
</svg>
