<svg width="137.000000" height="119.000000" viewBox="0 0 137 119" fill="none" xmlns="http://www.w3.org/2000/svg" xmlns:xlink="http://www.w3.org/1999/xlink">
	<desc>
			Created with Pixso.
	</desc>
	<defs>
		<clipPath id="clip114_2">
			<rect id="фрейм 16" width="137.500000" height="118.750000" transform="translate(-0.750000 -0.250000)" fill="white" fill-opacity="0"/>
		</clipPath>
	</defs>
	<g clip-path="url(#clip114_2)">
		<path id="矢量 23" d="M31.5 118.5L106.5 118.5L69 81L31.5 118.5Z" fill="#F66400" fill-opacity="1.000000" fill-rule="evenodd"/>
		<path id="矢量 24" d="M124.25 -0.25L11.75 -0.25C4.87 -0.25 -0.75 5.37 -0.75 12.25L-0.75 87.25C-0.75 94.12 4.87 99.75 11.75 99.75L36.75 99.75L36.75 87.25L11.75 87.25L11.75 12.25L124.25 12.25L124.25 87.25L99.25 87.25L99.25 99.75L124.25 99.75C131.12 99.75 136.75 94.12 136.75 87.25L136.75 12.25C136.75 5.37 131.12 -0.25 124.25 -0.25Z" fill="#F66400" fill-opacity="1.000000" fill-rule="evenodd"/>
	</g>
</svg>
