<svg width="34.000000" height="33.000000" viewBox="0 0 34 33" fill="none" xmlns="http://www.w3.org/2000/svg" xmlns:xlink="http://www.w3.org/1999/xlink">
	<desc>
			Created with Pixso.
	</desc>
	<defs/>
	<path id="矢量 267" d="M23.86 20.53L22.34 20.53L21.8 20.03C23.69 17.9 24.83 15.14 24.83 12.13C24.83 5.43 19.21 0 12.28 0C5.35 0 -0.27 5.43 -0.27 12.13C-0.27 18.83 5.35 24.27 12.28 24.27C15.39 24.27 18.24 23.17 20.44 21.34L20.97 21.86L20.97 23.33L30.62 32.65L33.5 29.87L23.86 20.53ZM12.28 20.53C7.47 20.53 3.59 16.78 3.59 12.13C3.59 7.48 7.47 3.73 12.28 3.73C17.09 3.73 20.97 7.48 20.97 12.13C20.97 16.78 17.09 20.53 12.28 20.53Z" fill="#F66400" fill-opacity="1.000000" fill-rule="evenodd"/>
</svg>
